<svg width="253" height="50" viewBox="0 0 253 50" fill="none" xmlns="http://www.w3.org/2000/svg">
<path d="M11.064 26.28H7.992V39H0.119995V5.73602H11.016C15.56 5.73602 18.968 6.56802 21.24 8.23202C23.544 9.89602 24.696 12.44 24.696 15.864C24.696 18.008 24.184 19.8 23.16 21.24C22.136 22.648 20.52 23.848 18.312 24.84L26.76 39H17.88L11.064 26.28ZM7.992 20.856H11.304C13.064 20.856 14.376 20.456 15.24 19.656C16.136 18.856 16.584 17.592 16.584 15.864C16.584 14.264 16.104 13.096 15.144 12.36C14.216 11.624 12.776 11.256 10.824 11.256H7.992V20.856Z" fill="#141414"/>
<path d="M39.9379 12.696C43.8419 12.696 46.8979 13.896 49.1059 16.296C51.3139 18.664 52.4179 21.992 52.4179 26.28C52.4179 29 51.9059 31.384 50.8819 33.432C49.8899 35.448 48.4499 37.016 46.5619 38.136C44.7059 39.256 42.4979 39.816 39.9379 39.816C36.0659 39.816 33.0099 38.632 30.7699 36.264C28.5619 33.864 27.4579 30.52 27.4579 26.232C27.4579 23.512 27.9539 21.144 28.9459 19.128C29.9699 17.08 31.4099 15.496 33.2659 14.376C35.1539 13.256 37.3779 12.696 39.9379 12.696ZM39.9379 18.264C38.4019 18.264 37.2499 18.92 36.4819 20.232C35.7139 21.512 35.3299 23.512 35.3299 26.232C35.3299 29.016 35.6979 31.048 36.4339 32.328C37.2019 33.608 38.3699 34.248 39.9379 34.248C41.4739 34.248 42.6259 33.608 43.3939 32.328C44.1619 31.016 44.5459 29 44.5459 26.28C44.5459 23.496 44.1619 21.464 43.3939 20.184C42.6579 18.904 41.5059 18.264 39.9379 18.264Z" fill="#141414"/>
<path d="M79.7771 3.38402V39H73.0571L72.6731 36.024C70.8811 38.552 68.4651 39.816 65.4251 39.816C62.2571 39.816 59.8411 38.6 58.1771 36.168C56.5451 33.736 55.7291 30.408 55.7291 26.184C55.7291 23.592 56.1611 21.272 57.0251 19.224C57.8891 17.176 59.1051 15.576 60.6731 14.424C62.2731 13.272 64.0971 12.696 66.1451 12.696C68.5771 12.696 70.5931 13.496 72.1931 15.096V2.56802L79.7771 3.38402ZM67.7771 34.248C69.5371 34.248 71.0091 33.288 72.1931 31.368V20.376C71.5851 19.64 70.9611 19.096 70.3211 18.744C69.7131 18.392 69.0091 18.216 68.2091 18.216C66.8011 18.216 65.6811 18.872 64.8491 20.184C64.0171 21.496 63.6011 23.512 63.6011 26.232C63.6011 29.208 63.9531 31.288 64.6571 32.472C65.3931 33.656 66.4331 34.248 67.7771 34.248Z" fill="#141414"/>
<path d="M99.5344 12.792C100.462 12.792 101.31 12.904 102.078 13.128L100.878 20.472C99.9184 20.248 99.1504 20.136 98.5744 20.136C97.0704 20.136 95.9184 20.664 95.1184 21.72C94.3504 22.744 93.7424 24.296 93.2944 26.376V39H85.7104V13.512H92.3344L92.9584 18.456C93.5344 16.696 94.3984 15.32 95.5504 14.328C96.7344 13.304 98.0624 12.792 99.5344 12.792Z" fill="#141414"/>
<path d="M112.56 13.512V39H104.976V13.512H112.56ZM108.72 0.0720215C110.032 0.0720215 111.104 0.488022 111.936 1.32002C112.8 2.12002 113.232 3.14402 113.232 4.39202C113.232 5.64002 112.8 6.68002 111.936 7.51202C111.104 8.31202 110.032 8.71202 108.72 8.71202C107.408 8.71202 106.336 8.31202 105.504 7.51202C104.672 6.68002 104.256 5.64002 104.256 4.39202C104.256 3.14402 104.672 2.12002 105.504 1.32002C106.336 0.488022 107.408 0.0720215 108.72 0.0720215Z" fill="#141414"/>
<path d="M141.995 15C140.331 15.672 137.883 16.008 134.651 16.008C136.315 16.712 137.531 17.576 138.299 18.6C139.067 19.624 139.451 20.952 139.451 22.584C139.451 24.216 139.019 25.688 138.155 27C137.291 28.28 136.043 29.288 134.411 30.024C132.811 30.76 130.923 31.128 128.747 31.128C127.723 31.128 126.747 31.032 125.819 30.84C125.563 30.968 125.355 31.176 125.195 31.464C125.067 31.72 125.003 31.992 125.003 32.28C125.003 32.76 125.179 33.144 125.531 33.432C125.915 33.688 126.667 33.816 127.787 33.816H131.627C133.579 33.816 135.291 34.136 136.763 34.776C138.235 35.416 139.371 36.296 140.171 37.416C140.971 38.536 141.371 39.8 141.371 41.208C141.371 43.864 140.219 45.928 137.915 47.4C135.643 48.904 132.347 49.656 128.027 49.656C124.923 49.656 122.475 49.32 120.683 48.648C118.891 48.008 117.627 47.096 116.891 45.912C116.187 44.728 115.835 43.24 115.835 41.448H122.651C122.651 42.216 122.795 42.824 123.083 43.272C123.403 43.72 123.963 44.056 124.763 44.28C125.563 44.504 126.715 44.616 128.219 44.616C130.299 44.616 131.739 44.36 132.539 43.848C133.339 43.368 133.739 42.664 133.739 41.736C133.739 40.968 133.435 40.36 132.827 39.912C132.219 39.464 131.307 39.24 130.091 39.24H126.395C123.771 39.24 121.803 38.776 120.491 37.848C119.211 36.888 118.571 35.672 118.571 34.2C118.571 33.272 118.843 32.376 119.387 31.512C119.931 30.616 120.667 29.88 121.595 29.304C119.995 28.44 118.827 27.432 118.091 26.28C117.387 25.096 117.035 23.672 117.035 22.008C117.035 19.16 118.059 16.904 120.107 15.24C122.155 13.544 124.859 12.696 128.219 12.696C130.779 12.76 132.939 12.504 134.699 11.928C136.491 11.352 138.331 10.504 140.219 9.38402L141.995 15ZM128.411 17.688C127.227 17.688 126.283 18.072 125.579 18.84C124.907 19.576 124.571 20.6 124.571 21.912C124.571 23.288 124.907 24.36 125.579 25.128C126.283 25.864 127.227 26.232 128.411 26.232C129.659 26.232 130.603 25.864 131.243 25.128C131.915 24.392 132.251 23.288 132.251 21.816C132.251 19.064 130.971 17.688 128.411 17.688Z" fill="#141414"/>
<path d="M154.922 12.696C158.826 12.696 161.882 13.896 164.09 16.296C166.298 18.664 167.402 21.992 167.402 26.28C167.402 29 166.89 31.384 165.866 33.432C164.874 35.448 163.434 37.016 161.546 38.136C159.69 39.256 157.482 39.816 154.922 39.816C151.05 39.816 147.994 38.632 145.754 36.264C143.546 33.864 142.442 30.52 142.442 26.232C142.442 23.512 142.938 21.144 143.93 19.128C144.954 17.08 146.394 15.496 148.25 14.376C150.138 13.256 152.362 12.696 154.922 12.696ZM154.922 18.264C153.386 18.264 152.234 18.92 151.466 20.232C150.698 21.512 150.314 23.512 150.314 26.232C150.314 29.016 150.682 31.048 151.418 32.328C152.186 33.608 153.354 34.248 154.922 34.248C156.458 34.248 157.61 33.608 158.378 32.328C159.146 31.016 159.53 29 159.53 26.28C159.53 23.496 159.146 21.464 158.378 20.184C157.642 18.904 156.49 18.264 154.922 18.264Z" fill="#141414"/>
<path d="M191.32 5.73602V32.76H204.28L203.464 39H183.448V5.73602H191.32Z" fill="#141414"/>
<path d="M228.714 39H222.138L221.802 35.784C219.946 38.472 217.37 39.816 214.074 39.816C211.738 39.816 209.962 39.112 208.746 37.704C207.562 36.296 206.97 34.328 206.97 31.8V13.512H214.554V30.84C214.554 32.088 214.746 32.968 215.13 33.48C215.546 33.96 216.17 34.2 217.002 34.2C218.602 34.2 219.978 33.208 221.13 31.224V13.512H228.714V39Z" fill="#141414"/>
<path d="M252.631 13.512V18.84L241.111 33.24H252.871L252.199 39H232.327V33.624L243.895 19.224H233.335V13.512H252.631Z" fill="#141414"/>
</svg>
